<?xml version="1.0" encoding="utf-8"?>
<!-- Generator: Adobe Illustrator 24.3.0, SVG Export Plug-In . SVG Version: 6.00 Build 0)  -->
<svg version="1.1" id="Layer_1" xmlns="http://www.w3.org/2000/svg" xmlns:xlink="http://www.w3.org/1999/xlink" x="0px" y="0px"
	 viewBox="0 0 200 200" style="enable-background:new 0 0 200 200;" xml:space="preserve">
<style type="text/css">
	.st0{fill:none;stroke:#000000;stroke-width:4;stroke-opacity:0.25;}
</style>
<g>
	<path class="st0" d="M0,52h200"/>
	<path class="st0" d="M0,76h200"/>
	<path class="st0" d="M0,100h200"/>
	<path class="st0" d="M0,124h200"/>
	<path class="st0" d="M0,148h200"/>
</g>
<path d="M180,28h2v81c0,4.1-2.4,7.1-5,10c-4.2,3.5-8.8,4.7-14,4.7c-6.4,0-10-4.1-10-8.3c0.3-8.6,12.3-16,19.6-15.7
	c2.7,0.1,6.1,1.5,7.4,2V28z"/>
<path d="M166.1,143.9l2.4,1.9c-14.4,21.8-31.9,32-41.2,36.8c-23.8,12.8-51.3,15.3-67.1,15.3c-14.7,0-26.3-2.3-31.5-5.8l1.7-2.4
	c8.5,3.6,17.5,4.8,30,4.9c39.8-0.3,64.8-14.5,67.8-16.4c8.6-5.1,19.1-9.1,38-34.2L166.1,143.9z"/>
<path d="M45,76h2v81c0,4.1-2.4,7.1-5,10c-4.2,3.5-8.8,4.7-14,4.7c-6.4,0-10-4.1-10-8.3c0.3-8.6,12.3-16,19.6-15.7
	c2.7,0.1,6.1,1.5,7.4,2V76z"/>
<path d="M112.2,63h2v81c0,4.1-2.4,7.1-5,10c-4.2,3.5-8.8,4.7-14,4.7c-6.4,0-10-4.1-10-8.3c0.3-8.6,12.3-16,19.6-15.7
	c2.7,0.1,6.1,1.5,7.4,2V63z"/>
<path d="M36.5,184.9c0,2.2-1.8,4-4,4s-4-1.8-4-4s1.8-4,4-4S36.5,182.7,36.5,184.9z"/>
<path d="M104,171.9c0,2.2-1.8,4-4,4s-4-1.8-4-4s1.8-4,4-4S104,169.7,104,171.9z"/>
<path d="M171.5,138.2c0,2.2-1.8,4-4,4s-4-1.8-4-4s1.8-4,4-4S171.5,136,171.5,138.2z"/>
</svg>
