<?xml version="1.0" encoding="UTF-8" standalone="no"?>
<svg
   xmlns="http://www.w3.org/2000/svg"
   viewBox="0 0 200 200"
   height="200"
   width="200"
   version="1.1"
   id="svg7861">
  <path
     id="path7871"
     d="m 58.613284,155.42243 c -4.710815,-2.20451 -8.457182,-6.63465 -8.556575,-11.76417 -0.129373,-6.67675 3.66667,-12.63772 10.881392,-12.73135 3.015035,-0.0391 6.975586,1.1821 8.134994,6.21482 0.130734,5.28045 -3.491792,9.84303 -8.025363,12.20349 0.401974,1.6098 1.710585,2.89839 4.285708,2.25207 7.941457,-1.99319 13.327312,-12.78439 21.807847,-43.69474 3.39879,-12.388114 6.688255,-25.124421 6.966605,-26.087941 l -12.021025,0 0,-5.932822 15.51642,0 1.848046,-4.071989 c 4.927247,-10.856699 14.510597,-20.916979 24.879957,-25.267032 6.76624,-2.838503 14.95894,-2.998148 18.64002,-1.276026 6.22109,2.910419 7.84858,10.023776 4.59528,17.513158 -2.34127,5.389796 -5.73464,7.02822 -9.93808,6.506832 -3.12612,-0.387757 -5.87623,-3.056882 -6.15587,-5.481686 -0.40288,-3.493398 1.00875,-6.625697 4.73426,-8.903007 1.98027,-1.210486 4.13434,-1.250353 5.0286,-2.825259 -4.26585,-6.443942 -11.35135,-2.363812 -15.67606,3.876748 -1.39187,2.008478 -4.07376,7.198409 -5.95974,11.533181 l -3.52267,8.39508 17.06386,0 0,5.932822 -18.58108,0 -3.80385,12.323364 c -7.94488,25.739087 -16.834734,44.247617 -25.316398,52.952587 -8.134029,8.34817 -18.999241,11.99464 -26.826278,8.33187 z"
     style="fill:#000000;fill-opacity:1" />
</svg>
