<svg width="14" height="14" viewBox="0 0 14 14" fill="none" xmlns="http://www.w3.org/2000/svg">
<path d="M3.87698 10.7827L4.1955 10.3973L3.87698 10.7827C4.04061 10.9179 4.05351 11.1034 3.99684 11.2016C3.66646 11.7738 3.83401 12.5836 4.52457 12.8749C5.05261 13.0976 5.6169 13.2513 6.20587 13.3245C6.94849 13.4169 7.49996 12.8016 7.49996 12.1394C7.49996 12.0267 7.60309 11.8731 7.8132 11.838C8.12443 11.786 8.42585 11.7047 8.71443 11.5971C8.91457 11.5224 9.08091 11.6042 9.13711 11.7015C9.46828 12.2751 10.2541 12.5321 10.8506 12.0792C11.3139 11.7275 11.7275 11.3139 12.0792 10.8506C12.5321 10.2541 12.2751 9.46825 11.7015 9.13709C11.6042 9.08088 11.5224 8.91454 11.597 8.7144C11.7047 8.42583 11.786 8.12444 11.8379 7.81322C11.873 7.60312 12.0267 7.49999 12.1393 7.49999C12.8016 7.49999 13.4169 6.94853 13.3245 6.2059C13.2512 5.617 13.0976 5.05277 12.8749 4.52478C12.5836 3.83422 11.7739 3.66661 11.2016 3.997C11.1035 4.05367 10.918 4.04078 10.7828 3.87712C10.5842 3.63686 10.3632 3.41584 10.1229 3.21728C9.95931 3.08205 9.94641 2.89659 10.0031 2.79843C10.3335 2.2262 10.1659 1.41641 9.47535 1.12512C8.94731 0.902375 8.38302 0.748725 7.79405 0.675468C7.05142 0.583099 6.49996 1.19838 6.49996 1.86062C6.49996 1.97326 6.39683 2.12692 6.18672 2.162C5.87554 2.21396 5.57416 2.29523 5.28561 2.40288C5.08547 2.47754 4.91913 2.39576 4.86292 2.2984C4.53175 1.7248 3.74593 1.46779 3.14939 1.92067C2.68608 2.2724 2.27242 2.68606 1.92068 3.14937C1.4678 3.74591 1.7248 4.53173 2.2984 4.86289C2.39575 4.9191 2.47754 5.08544 2.40287 5.28558C2.29521 5.57415 2.21394 5.87554 2.16197 6.18675C2.12689 6.39686 1.97323 6.49999 1.86059 6.49999C1.19835 6.49999 0.583068 7.05145 0.675437 7.79408C0.748702 8.38312 0.902379 8.94746 1.12516 9.47556C1.41648 10.1661 2.22628 10.3336 2.79848 10.0033C2.89665 9.94657 3.08212 9.95948 3.21735 10.1231C3.41585 10.3633 3.63679 10.5842 3.87698 10.7827Z" stroke="black" stroke-linecap="round" stroke-linejoin="round"/>
<path d="M9.5 7C9.5 8.38071 8.38071 9.5 7 9.5C5.61929 9.5 4.5 8.38071 4.5 7C4.5 5.61929 5.61929 4.5 7 4.5C8.38071 4.5 9.5 5.61929 9.5 7Z" stroke="black" stroke-linecap="round" stroke-linejoin="round"/>
</svg>
