<svg width="14" height="14" viewBox="0 0 14 14" fill="none" xmlns="http://www.w3.org/2000/svg">
<mask id="path-1-inside-1" fill="white">
<path d="M7 0C5.61929 0 4.5 3.13401 4.5 7C4.5 7.69497 4.53617 8.36629 4.60353 9C4.91087 11.8915 5.86749 14 7 14C7.84955 14 8.60013 12.8135 9.0519 11C9.33435 9.86617 9.5 8.48725 9.5 7C9.5 3.13401 8.38071 0 7 0Z"/>
</mask>
<path d="M9.0519 11L10.0222 11.2417L10.0222 11.2417L9.0519 11ZM4.60353 9L5.59793 8.8943L5.59793 8.8943L4.60353 9ZM5.5 7C5.5 5.1506 5.76933 3.5196 6.17397 2.38659C6.37785 1.81573 6.5973 1.42458 6.79094 1.19525C6.9885 0.961276 7.06333 1 7 1V-1C6.24631 -1 5.66346 -0.569525 5.26283 -0.0950576C4.85829 0.384047 4.53902 1.01803 4.29049 1.71392C3.79032 3.1144 3.5 4.98341 3.5 7H5.5ZM7 1C6.93667 1 7.0115 0.961276 7.20906 1.19525C7.4027 1.42458 7.62215 1.81573 7.82603 2.38659C8.23067 3.5196 8.5 5.1506 8.5 7H10.5C10.5 4.98341 10.2097 3.1144 9.70951 1.71392C9.46098 1.01803 9.14171 0.384047 8.73717 -0.0950576C8.33654 -0.569525 7.75369 -1 7 -1V1ZM8.5 7C8.5 8.41752 8.34166 9.71415 8.08155 10.7583L10.0222 11.2417C10.327 10.0182 10.5 8.55697 10.5 7H8.5ZM8.08155 10.7583C7.87102 11.6034 7.60649 12.2318 7.34412 12.6238C7.06108 13.0466 6.92336 13 7 13V15C7.9262 15 8.58854 14.3601 9.00612 13.7363C9.44437 13.0816 9.781 12.2101 10.0222 11.2417L8.08155 10.7583ZM7 13C7.0497 13 7.01258 13.0275 6.88243 12.9029C6.74748 12.7738 6.57554 12.5367 6.39676 12.1577C6.04068 11.4028 5.74428 10.2713 5.59793 8.8943L3.60913 9.1057C3.77011 10.6202 4.1057 11.9887 4.5879 13.0109C4.82824 13.5205 5.12702 13.9913 5.49956 14.3478C5.8769 14.7089 6.38404 15 7 15V13ZM5.59793 8.8943C5.5344 8.29663 5.5 7.66061 5.5 7H3.5C3.5 7.72934 3.53794 8.43596 3.60913 9.1057L5.59793 8.8943Z" fill="black" mask="url(#path-1-inside-1)"/>
<mask id="path-3-inside-2" fill="white">
<path d="M0 7C0 3.13401 3.13401 0 7 0C10.866 0 14 3.13401 14 7C14 8.48725 13.5362 9.86617 12.7453 11C11.4804 12.8135 9.37875 14 7 14C3.82898 14 1.15043 11.8915 0.289879 9C0.101278 8.36629 0 7.69497 0 7Z"/>
</mask>
<path d="M7 4L7 3.5L7 3.5L7 4ZM6.99999 10L6.99999 10.5L6.99999 10.5L6.99999 10ZM0 7.5H14V6.5H0V7.5ZM12.3858 2.54844C11.199 3.11273 9.24679 3.5 7 3.5L7 4.5C9.33349 4.5 11.4478 4.10172 12.8152 3.45156L12.3858 2.54844ZM1.18478 3.45156C2.55218 4.10172 4.6665 4.5 7 4.5L7 3.5C4.7532 3.5 2.80097 3.11273 1.61419 2.54844L1.18478 3.45156ZM1.61418 11.4516C2.80096 10.8873 4.7532 10.5 6.99999 10.5L6.99999 9.5C4.66649 9.5 2.55217 9.89828 1.18477 10.5484L1.61418 11.4516ZM12.8152 10.5484C11.4478 9.89828 9.33349 9.5 6.99999 9.5L6.99999 10.5C9.24678 10.5 11.199 10.8873 12.3858 11.4516L12.8152 10.5484ZM12.7453 11L13.5655 11.5721L13.5655 11.5721L12.7453 11ZM0.289879 9L1.24833 8.71475L1.24833 8.71475L0.289879 9ZM1 7C1 3.68629 3.68629 1 7 1V-1C2.58172 -1 -1 2.58172 -1 7H1ZM7 1C10.3137 1 13 3.68629 13 7H15C15 2.58172 11.4183 -1 7 -1V1ZM13 7C13 8.27611 12.6027 9.45644 11.9251 10.4279L13.5655 11.5721C14.4696 10.2759 15 8.69838 15 7H13ZM11.9251 10.4279C10.8392 11.9848 9.03807 13 7 13V15C9.71942 15 12.1215 13.6422 13.5655 11.5721L11.9251 10.4279ZM7 13C4.28346 13 1.98616 11.1939 1.24833 8.71475L-0.668575 9.28525C0.314699 12.5891 3.3745 15 7 15V13ZM1.24833 8.71475C1.08699 8.17263 1 7.59736 1 7H-1C-1 7.79259 -0.884435 8.55995 -0.668575 9.28525L1.24833 8.71475Z" fill="black" mask="url(#path-3-inside-2)"/>
</svg>
