<?xml version="1.0" encoding="UTF-8" standalone="no"?>
<svg
   xmlns="http://www.w3.org/2000/svg"
   height="200"
   width="200"
   version="1.1"
   id="svg8521">
  <path
     id="path7871"
     d="m 110.60352,43.292969 c -3.65184,0.04331 -7.90884,0.792014 -11.714848,2.388672 C 88.51931,50.031694 78.937013,60.09252 74.009766,70.949219 l -1.84961,4.072265 -15.515625,0 0,5.933594 12.021485,0 c -0.27835,0.96352 -3.568007,13.699773 -6.966797,26.087892 -8.480535,30.91035 -13.867137,41.70017 -21.808594,43.69336 -2.575123,0.64632 -3.883182,-0.64215 -4.285156,-2.25195 4.533571,-2.36046 8.156124,-6.92268 8.02539,-12.20313 -1.159408,-5.03272 -5.11973,-6.25394 -8.134765,-6.21484 -7.214722,0.0936 -11.012186,6.05567 -10.882813,12.73242 0.09939,5.12952 3.845826,9.55916 8.556641,11.76367 7.827037,3.66277 18.694096,0.0161 26.828125,-8.33203 8.481664,-8.70497 17.371526,-27.21404 25.316406,-52.953126 l 3.802735,-12.322266 30.574222,0 c -0.27835,0.96352 -3.56801,13.699776 -6.9668,26.087892 -8.48054,30.91035 -13.865179,41.70017 -21.806641,43.69336 -2.575123,0.64632 -3.885136,-0.64215 -4.28711,-2.25195 4.533571,-2.36046 8.156131,-6.92268 8.025391,-12.20313 -1.1594,-5.03272 -5.119731,-6.25394 -8.134766,-6.21484 -7.214722,0.0936 -11.010232,6.05567 -10.880859,12.73242 0.09939,5.12952 3.845826,9.55916 8.556641,11.76367 7.827037,3.66277 18.692144,0.0162 26.826174,-8.33203 8.48166,-8.70497 17.37152,-27.21403 25.3164,-52.953126 l 3.80469,-12.322266 18.58008,0 0,-5.933594 -17.06445,0 3.52343,-8.394531 c 1.88598,-4.334772 4.56712,-9.524725 5.95899,-11.533203 4.32471,-6.24056 11.41188,-10.320895 15.67773,-3.876953 -0.89426,1.574906 -3.04902,1.613733 -5.02929,2.824219 -3.72551,2.27731 -5.13726,5.410899 -4.73438,8.904296 0.27964,2.424804 3.03013,5.092712 6.15625,5.480469 4.20344,0.521388 7.59623,-1.116063 9.9375,-6.505859 3.2533,-7.489382 1.62539,-14.603253 -4.5957,-17.513672 -3.68108,-1.722122 -11.87243,-1.563112 -18.63867,1.275391 -10.36936,4.350053 -19.95361,14.410879 -24.88086,25.267578 l -1.84766,4.072265 -32.552734,0 3.523437,-8.394531 c 1.88598,-4.334772 4.567119,-9.524725 5.958987,-11.533203 4.32471,-6.24056 11.40993,-10.320895 15.67578,-3.876953 -0.89426,1.574906 -3.04903,1.613733 -5.0293,2.824219 -3.72551,2.27731 -5.13725,5.410899 -4.73437,8.904296 0.27964,2.424804 3.03013,5.092712 6.15625,5.480469 4.20344,0.521388 7.59818,-1.116063 9.93945,-6.505859 3.2533,-7.489382 1.62539,-14.603253 -4.5957,-17.513672 -1.61048,-0.753428 -4.08546,-1.146965 -6.92578,-1.113281 z"
     style="fill:#000000;fill-opacity:1" />
</svg>
