<?xml version="1.0" encoding="UTF-8" standalone="no"?>
<svg
   xmlns="http://www.w3.org/2000/svg"
   height="250"
   width="250"
   version="1.1"
   id="svg7196">
  <path
     id="path7206"
     d="m 110.32029,193.02402 c -11.729527,-6.01338 -13.24754,-23.17176 -1.90436,-28.55445 5.23756,-2.48538 9.90645,-1.84297 13.55051,2.46063 3.20567,3.78587 1.61474,10.16245 -1.79695,14.85987 -2.3305,3.20877 -5.69915,5.34586 -5.69915,5.68366 0,1.51366 5.46185,2.10277 9.98614,-0.88524 7.52854,-4.97212 12.67419,-16.5933 24.97984,-59.99525 3.74753,-13.21748 6.81368,-25.00592 6.81368,-25.36658 l -16.25,0 0,-7.619244 19.375,0 4.42184,-8.577547 c 9.88879,-19.18238 31.47085,-31.766634 48.53779,-29.853227 8.31952,0.932716 12.60216,5.488287 12.60216,14.322737 0,5.149542 -1.85538,8.935482 -5.01079,11.737597 -3.35589,2.980149 -6.16673,4.324012 -10.02291,3.69824 -4.77523,-0.774913 -6.29358,-3.586235 -6.31654,-7.746613 -0.0212,-3.846762 4.7917,-9.60922 8.42489,-10.990557 2.70208,-1.027333 2.99681,-1.557031 1.72137,-3.093842 -3.76066,-4.531316 -14.33205,-0.818348 -20.42907,7.17527 -2.93273,3.845064 -9.36648,20.343138 -9.36648,23.327942 l 21.06274,0 0,7.619244 -23.32245,0 -3.51791,12.61955 c -4.4921,16.11417 -15.06433,42.16406 -21.18205,52.23492 -6.19878,10.20428 -14.91305,21.42577 -23.66019,25.38956 -10.67037,4.8353 -17.76452,4.23592 -22.99711,1.55333 z m -7.33514,-36.68116 c -2.5755,-1.1858 -7.556593,-4.13132 -7.646456,-8.76241 -0.123297,-6.35404 3.485494,-13.75383 7.885106,-26.19702 3.52484,-9.96912 6.7762,-19.03598 6.7762,-20.3125 0,-3.392029 -6.36357,-3.069439 -9.69686,0.49157 -1.447955,1.54688 -6.53223,13.78125 -11.29839,27.1875 l -9.040271,24.95226 -16.589006,0 C 66.184425,144.99653 67.6875,140.69354 72.5,127.5 c 4.8125,-13.19353 8.75,-25.05964 8.75,-26.36912 0,-3.250716 -6.354539,-3.218452 -9.309974,0.0473 -1.208594,1.33548 -6.183456,13.5984 -11.227592,27.1875 l -9.404677,25.33658 c -6.330092,0.0324 -11.405155,-0.0199 -16.682284,0 0,-0.33172 4.349252,-11.78562 9.207248,-24.91385 4.857996,-13.12821 8.936121,-25.37608 9.0625,-27.21746 0.651785,-9.496781 -11.371335,-0.0733 -19.185277,15.03704 -2.83947,5.49087 -3.591482,6.69799 -4.462546,8.94818 l -4.996451,0 c 1.123581,-4.00887 9.265529,-19.04005 13.663575,-24.84676 8.783793,-11.597168 24.894787,-14.134395 28.304507,-5.166151 l 1.174196,3.08837 6.117306,-4.180072 c 9.064543,-6.193974 18.079304,-6.554494 21.198907,-0.382377 l 2.119548,4.193515 6.240964,-3.944225 c 12.22651,-7.727031 25.50428,-5.436212 25.1791,3.091932 C 128.06179,102.32162 124.125,110.8047 120,122.91995 c -4.125,12.11524 -7.5,22.85004 -7.5,23.85511 0,6.44845 9.13652,0.95386 16.44531,-9.89 3.2256,-4.78574 3.91049,-5.70374 5.1813,-8.20712 l 4.93841,0 c -4.33921,8.95714 -12.60802,20.96642 -18.86904,25.71392 -4.38828,3.32748 -12.74659,4.00641 -17.21083,1.951 z"
     style="fill:#000000;fill-opacity:1" />
</svg>
