<?xml version="1.0" encoding="UTF-8" standalone="no"?>
<svg
   xmlns="http://www.w3.org/2000/svg"
   height="250"
   width="250"
   version="1.1"
   id="svg5496">
  <g
     style="fill:#000000;fill-opacity:1"
     id="g6071">
    <path
       d="m 25.836798,170.19571 c 0,0 2.455945,0.18226 7.119002,-0.005 5.403064,-0.21698 7.795824,-0.56851 9.189956,-2.1875 2.784231,-3.23329 31.080059,-83.659265 30.220999,-85.897945 -2.07447,-5.40597 -10.41141,1.74956 -17.999759,15.44905 -4.317261,7.794105 -3.216676,6.829655 -5.691707,10.777675 -2.610605,0.0192 -3.101061,0.0559 -5.35678,0 8.449361,-17.375275 16.342556,-28.973245 24.683866,-33.220675 7.359015,-3.74724 15.792785,-5.67769 18.646695,7.1452 3.15264,-1.53929 6.05112,-3.08632 9.62547,-4.79364 13.10148,-6.25804 21.99216,-5.97397 27.72084,-1.70378 6.44225,4.8021 9.38747,11.70456 9.03842,21.49387 -0.48883,13.709805 -4.08637,18.713985 -13.26542,30.934875 -14.56252,19.38837 -36.01257,11.26116 -40.0893,4.3777 -2.10408,3.40448 -12.958775,34.71772 -12.230395,36.00326 1.34259,2.36956 3.02326,1.80917 7.536625,1.80917 3.85292,0 6.82059,0.005 6.82059,0.005 l 0,7.30774 -55.969102,0 z M 96.22031,129.73383 c 8.7526,-8.7526 18.35592,-39.705795 14.53428,-46.846575 -1.86599,-3.48663 -7.42375,-3.55696 -11.75654,-0.14878 -8.81552,6.93429 -17.81849,39.100265 -13.30454,47.534665 1.77979,3.32557 6.92557,3.06193 10.5268,-0.53931 z"
       id="path4841" />
    <path
       d="m 115.87917,170.19571 c 0,0 2.45595,0.18226 7.119,-0.005 5.40307,-0.21698 7.79583,-0.56851 9.18996,-2.1875 2.78423,-3.23329 31.08006,-83.659264 30.221,-85.897944 -2.07447,-5.40597 -10.41141,1.74956 -17.99976,15.44905 -4.31726,7.794104 -3.21668,6.829654 -5.69171,10.777674 -2.6106,0.0192 -3.10106,0.0559 -5.35678,0 8.44936,-17.375274 16.34256,-28.973254 24.68387,-33.220684 7.35901,-3.74723 15.79278,-5.67768 18.64669,7.14521 3.15264,-1.53929 6.05112,-3.08632 9.62547,-4.79364 13.10148,-6.25804 21.99216,-5.97397 27.72084,-1.70378 6.44225,4.8021 9.38747,11.70456 9.03842,21.49387 -0.48883,13.709804 -4.08637,18.713984 -13.26542,30.934874 -14.56252,19.38837 -36.01257,11.26116 -40.0893,4.3777 -2.10408,3.40448 -12.95877,34.71772 -12.23039,36.00326 1.34259,2.36956 3.02326,1.80917 7.53662,1.80917 3.85292,0 6.82059,0.005 6.82059,0.005 l 0,7.30774 -55.9691,0 z m 70.38351,-40.46188 c 8.7526,-8.7526 18.35592,-39.705794 14.53428,-46.846574 -1.86599,-3.48663 -7.42375,-3.55696 -11.75654,-0.14878 -8.81552,6.93429 -17.81849,39.100264 -13.30454,47.534664 1.77979,3.32557 6.92557,3.06193 10.5268,-0.53931 z"
       id="path4841-3" />
  </g>
</svg>
