<?xml version="1.0" encoding="UTF-8" standalone="no"?>
<svg
   xmlns="http://www.w3.org/2000/svg"
   height="250"
   width="250"
   id="svg4831">
  <path
     id="path4841"
     d="m 71.437263,170.00474 c 0,0 2.455945,0.18226 7.119002,-0.005 5.403064,-0.21698 7.795824,-0.56851 9.189956,-2.1875 2.784231,-3.23329 31.080059,-83.659259 30.220999,-85.897936 -2.07447,-5.40597 -10.41141,1.749561 -17.999759,15.449049 -4.317261,7.794097 -3.216676,6.829647 -5.691707,10.777667 -2.610605,0.0192 -3.101061,0.0559 -5.35678,0 8.449361,-17.375265 16.342556,-28.97324 24.683866,-33.22067 7.35901,-3.747237 15.79278,-5.677686 18.64669,7.145201 3.15264,-1.539283 6.05112,-3.086316 9.62547,-4.793637 13.10148,-6.258041 21.99216,-5.973967 27.72084,-1.703775 6.44225,4.802097 9.38747,11.704555 9.03842,21.493864 -0.48883,13.709797 -4.08637,18.713977 -13.26542,30.934867 -14.56252,19.38837 -36.01257,11.26116 -40.0893,4.3777 -2.10408,3.40448 -12.95877,34.71772 -12.23039,36.00326 1.34259,2.36956 3.02326,1.80917 7.53662,1.80917 3.85292,0 6.82059,0.005 6.82059,0.005 l 0,7.30774 -55.969097,0 z m 70.383507,-40.46188 c 8.7526,-8.7526 18.35592,-39.705785 14.53428,-46.846569 -1.86599,-3.486622 -7.42375,-3.556956 -11.75654,-0.148781 -8.81552,6.934292 -17.81849,39.10026 -13.30454,47.53466 1.77979,3.32557 6.92557,3.06193 10.5268,-0.53931 z"
     style="fill:#000000;fill-opacity:1" />
</svg>
