<?xml version="1.0" encoding="UTF-8" standalone="no"?>
<svg
   xmlns="http://www.w3.org/2000/svg"
   height="250"
   width="250">
  <path d="m 113.75,170.1 c 1.3,-0.1 2,0 3.8,-0.1 4.7,-0.3 11.2,-2.7 13.9,-5.8 C 134.1,161.2 160,88.9 160,84.6 c 0,-2.2 -0.7,-3.3 -2,-3.3 -3.1,-0.1 -10.4,10.1 -13.1,15.6 -1.2,-0.1 -5,0 -6.4,-0.1 0.7,-4.1 8.9,-16.3 14.7,-20.3 7.5,-5.2 15.9,-4.7 20.6,0.6 l 3.3,3.7 4.3,-2.7 c 6.4,-4 11.1,-6.4 18.8,-6.3 5.5,0.1 9.8,1.7 14,6.1 12.2,12.5 9.1,35.6 -5.5,51.5 -6.7,7.3 -12.9,11.6 -21.8,12 -4.8,0.2 -9,-0.7 -13,-2.6 -3.5,-1.6 -5.8,-3.5 -7.2,-4.6 -0.6,1.7 -3.2,9.8 -6,17.8 -4.9,14.2 -4.9,14.6 -2.6,16.4 1.3,1 3.6,1.7 5.9,1.8 2.5,0.1 3,0.1 4.7,0.1 l 0.1,7.4 -27.5,0 -27.5,0 z m 67.2,-38.1 c 5,-2.6 8.5,-6.8 12,-14.5 6.1,-13.5 8.7,-29.4 5.7,-35.1 -4.6,-8.6 -18,6.5 -23.1,25.9 -2.2,8.3 -2.4,19.5 -0.6,23 1.5,2.9 1.7,2.9 6,0.7 z m -76.8,8.1 C 100.4,138.4 97.5,133.8 97.5,129.3 c 0,-4.4 3.9,-17.2 10,-32.3 4.5,-11.2 4.6,-16.2 0.4,-16.8 -2,-0.3 -3.3,0.6 -4.7,3.5 -1.8,3.4 -11.1,26.9 -18.3,46 l -2.5,6.6 c -5.8,0 -12.2,0 -17.5,0 C 74.4,111.9 82.5,88.2 82.5,84.5 c 0,-4.1 -0.3,-4.6 -2.8,-4.3 -4,0.6 -7.3,7.3 -16.2,33.2 L 55.6,136.2 c -6.7,0.1 -12.3,0.1 -18.5,0 0.8,-2.9 4.1,-12.2 8.6,-24.8 4.5,-12.6 8.3,-24.4 8.4,-26.2 0.6,-9.6 -11.4,-0.2 -17.4,14.1 -2.2,5.2 -3.6,8.8 -3.6,8.8 l -5.8,0 3.3,-7.7 C 37.9,83.7 48.3,72.5 58.3,71.1 64.4,70.3 70,73.6 70,77.5 c 0,3.1 0.3,2.6 5.8,-1.1 10.6,-7.2 21.7,-6.6 22.7,0 l 0.7,4.5 5.1,-3.5 c 7.4,-5.1 16.83174,-7.4 21.1,-5 6.2,3.5 5.2,7.2 -3,32.4 -7.3,22.5 -8.3,27.7 -5.3,28.7 2.5,0.8 10.8,-7.7 15.3,-15.7 2.7,-4.9 3.2,-5.7 4.3,-7.5 1.1,0.5 2.3,1.1 3.3,1.7 -1,3.2 -11.2,20.7 -16.9,25.3 -4.6,3.8 -14.1,5 -19,2.9 z"
     style="fill:#000000;fill-opacity:1" />
</svg>
